# xmcd CD database file
#
# Track frame offsets:
#	150
#	14708
#	28432
#	46067
#	61921
#	75683
#	94917
#	109943
#	123845
#	139776
#	155997
#	169887
#	183871
#	199861
#
# Disc length: 2828 seconds
#
# Revision: 0
# Processed by: cddbd v1.4PL0 Copyright (c) Steve Scherf et al.
# Submitted via: Feurio! 1.66 - http://www.feurio.com
#
DISCID=c50b0a0e
DTITLE=Illana May - Ek Wil Nou Eerste Wees
DYEAR=2003
DGENRE=Country
TTITLE0=Slippin' Away
TTITLE1=The One You Used To Love
TTITLE2=Dancing You Out of My Life
TTITLE3=Blanket on the Ground
TTITLE4=Lovin' On
TTITLE5=He Thinks I Still Care
TTITLE6=Wasted Time
TTITLE7=What Kind of Girl
TTITLE8=Ek Wil Nou Eerste Wees
TTITLE9=Hou My Bietjie Vas
TTITLE10=Rave On
TTITLE11=Wait Til I Get You Home
TTITLE12=Like There's No Tomorrow
TTITLE13=The French Song
EXTD=
EXTT0=Country
EXTT1=Country
EXTT2=Country
EXTT3=Country
EXTT4=Country
EXTT5=Country
EXTT6=Country Rock
EXTT7=Soft Rock
EXTT8=Afrikaans
EXTT9=Afrikaans
EXTT10=Soft Rock
EXTT11=Country Duet
EXTT12=Country
EXTT13=Country
PLAYORDER=
